<svg xmlns="http://www.w3.org/2000/svg" xmlns:xlink="http://www.w3.org/1999/xlink" width="300" zoomAndPan="magnify" viewBox="0 0 224.87999 225" height="300" preserveAspectRatio="xMidYMid meet" version="1.2"><defs><clipPath id="f3689858c7"><path d="M 0 0.0585938 L 224.761719 0.0585938 L 224.761719 224.9375 L 0 224.9375 Z M 0 0.0585938 "/></clipPath><clipPath id="0b2a7465e0"><path d="M 3 70.1875 L 224.761719 70.1875 L 224.761719 151 L 3 151 Z M 3 70.1875 "/></clipPath></defs><g id="50c3b621e6"><g clip-rule="nonzero" clip-path="url(#f3689858c7)"><path style=" stroke:none;fill-rule:nonzero;fill:#ffffff;fill-opacity:1;" d="M 0 0.0585938 L 224.878906 0.0585938 L 224.878906 224.941406 L 0 224.941406 Z M 0 0.0585938 "/><path style=" stroke:none;fill-rule:nonzero;fill:#ffffff;fill-opacity:1;" d="M 0 0.0585938 L 224.878906 0.0585938 L 224.878906 224.941406 L 0 224.941406 Z M 0 0.0585938 "/></g><g clip-rule="nonzero" clip-path="url(#0b2a7465e0)"><path style=" stroke:none;fill-rule:nonzero;fill:#8bc349;fill-opacity:1;" d="M 179.199219 140.226562 C 179.6875 137.144531 181.25 128.355469 183.707031 124.773438 C 183.707031 124.773438 184.53125 128.164062 181.488281 140.671875 C 181.40625 141.007812 181.808594 141.246094 182.0625 141.015625 C 194.753906 129.480469 185.054688 116.546875 185.054688 116.546875 C 185.054688 116.546875 171.171875 124.832031 178.539062 140.324219 C 178.683594 140.632812 179.144531 140.566406 179.199219 140.226562 Z M 185.847656 145.054688 C 190.617188 142.386719 204.40625 135.023438 211.988281 134.523438 C 211.988281 134.523438 208.21875 139.332031 187.714844 148.6875 C 187.167969 148.9375 187.269531 149.746094 187.867188 149.847656 C 217.476562 154.816406 224.765625 127.472656 224.765625 127.472656 C 224.765625 127.472656 198.339844 117.34375 185 144.246094 C 184.734375 144.785156 185.324219 145.347656 185.847656 145.054688 Z M 50.125 93.972656 C 57.492188 78.480469 43.609375 70.191406 43.609375 70.191406 C 43.609375 70.191406 33.910156 83.125 46.601562 94.660156 C 46.855469 94.890625 47.257812 94.65625 47.175781 94.320312 C 44.132812 81.808594 44.957031 78.421875 44.957031 78.421875 C 47.410156 82 48.976562 90.789062 49.464844 93.875 C 49.519531 94.210938 49.976562 94.28125 50.125 93.972656 Z M 42.816406 98.703125 C 38.046875 96.035156 24.257812 88.667969 16.675781 88.171875 C 16.675781 88.171875 20.445312 92.976562 40.949219 102.332031 C 41.496094 102.582031 41.390625 103.394531 40.796875 103.492188 C 11.191406 108.460938 3.894531 81.121094 3.894531 81.121094 C 3.894531 81.121094 30.324219 70.992188 43.664062 97.894531 C 43.929688 98.433594 43.339844 98.992188 42.816406 98.703125 "/></g><path style=" stroke:none;fill-rule:nonzero;fill:#050a30;fill-opacity:1;" d="M 134.855469 141.582031 L 134.855469 136.558594 C 134.855469 136.050781 134.445312 135.640625 133.9375 135.640625 L 128.914062 135.640625 C 128.40625 135.640625 127.992188 136.050781 127.992188 136.558594 L 127.992188 141.582031 C 127.992188 142.09375 128.40625 142.503906 128.914062 142.503906 L 133.9375 142.503906 C 134.445312 142.503906 134.855469 142.09375 134.855469 141.582031 Z M 125.457031 141.582031 L 125.457031 136.558594 C 125.457031 136.050781 125.046875 135.640625 124.539062 135.640625 L 119.515625 135.640625 C 119.007812 135.640625 118.59375 136.050781 118.59375 136.558594 L 118.59375 141.582031 C 118.59375 142.09375 119.007812 142.503906 119.515625 142.503906 L 124.539062 142.503906 C 125.046875 142.503906 125.457031 142.09375 125.457031 141.582031 Z M 134.855469 132.578125 L 134.855469 127.554688 C 134.855469 127.046875 134.445312 126.636719 133.9375 126.636719 L 128.914062 126.636719 C 128.40625 126.636719 127.992188 127.046875 127.992188 127.554688 L 127.992188 132.578125 C 127.992188 133.085938 128.40625 133.496094 128.914062 133.496094 L 133.9375 133.496094 C 134.445312 133.496094 134.855469 133.085938 134.855469 132.578125 Z M 125.457031 132.578125 L 125.457031 127.554688 C 125.457031 127.046875 125.046875 126.636719 124.539062 126.636719 L 119.515625 126.636719 C 119.007812 126.636719 118.59375 127.046875 118.59375 127.554688 L 118.59375 132.578125 C 118.59375 133.085938 119.007812 133.496094 119.515625 133.496094 L 124.539062 133.496094 C 125.046875 133.496094 125.457031 133.085938 125.457031 132.578125 Z M 66.558594 141.582031 L 66.558594 136.558594 C 66.558594 136.050781 66.148438 135.640625 65.640625 135.640625 L 60.613281 135.640625 C 60.109375 135.640625 59.695312 136.050781 59.695312 136.558594 L 59.695312 141.582031 C 59.695312 142.09375 60.109375 142.503906 60.613281 142.503906 L 65.640625 142.503906 C 66.148438 142.503906 66.558594 142.09375 66.558594 141.582031 Z M 57.160156 141.582031 L 57.160156 136.558594 C 57.160156 136.050781 56.75 135.640625 56.242188 135.640625 L 51.21875 135.640625 C 50.710938 135.640625 50.300781 136.050781 50.300781 136.558594 L 50.300781 141.582031 C 50.300781 142.09375 50.710938 142.503906 51.21875 142.503906 L 56.242188 142.503906 C 56.75 142.503906 57.160156 142.09375 57.160156 141.582031 Z M 66.558594 132.578125 L 66.558594 127.554688 C 66.558594 127.046875 66.148438 126.636719 65.640625 126.636719 L 60.613281 126.636719 C 60.109375 126.636719 59.695312 127.046875 59.695312 127.554688 L 59.695312 132.578125 C 59.695312 133.085938 60.109375 133.496094 60.613281 133.496094 L 65.640625 133.496094 C 66.148438 133.496094 66.558594 133.085938 66.558594 132.578125 Z M 57.160156 132.578125 L 57.160156 127.554688 C 57.160156 127.046875 56.75 126.636719 56.242188 126.636719 L 51.21875 126.636719 C 50.710938 126.636719 50.300781 127.046875 50.300781 127.554688 L 50.300781 132.578125 C 50.300781 133.085938 50.710938 133.496094 51.21875 133.496094 L 56.242188 133.496094 C 56.75 133.496094 57.160156 133.085938 57.160156 132.578125 Z M 127.800781 95.570312 L 183.023438 149.375 C 184.507812 150.816406 183.484375 153.332031 181.414062 153.332031 L 170.304688 153.332031 C 169.703125 153.332031 169.125 153.097656 168.695312 152.675781 L 127.800781 112.835938 C 126.902344 111.964844 125.476562 111.964844 124.578125 112.835938 L 102.867188 133.992188 C 101.9375 134.898438 101.9375 136.390625 102.867188 137.296875 L 115.261719 149.375 C 116.746094 150.816406 115.722656 153.332031 113.652344 153.332031 L 102.542969 153.332031 C 101.941406 153.332031 101.363281 153.097656 100.933594 152.675781 L 92.308594 144.273438 L 83.449219 135.644531 L 60.039062 112.835938 C 59.144531 111.964844 57.714844 111.964844 56.820312 112.835938 L 15.925781 152.675781 C 15.492188 153.097656 14.914062 153.332031 14.3125 153.332031 L 3.207031 153.332031 C 1.136719 153.332031 0.113281 150.816406 1.597656 149.375 L 56.820312 95.570312 C 57.714844 94.699219 59.144531 94.699219 60.039062 95.570312 L 90.699219 125.445312 C 91.597656 126.316406 93.023438 126.316406 93.917969 125.445312 L 124.578125 95.570312 C 125.476562 94.699219 126.902344 94.699219 127.800781 95.570312 "/></g></svg>